<?xml version="1.0" standalone="no"?>
<!DOCTYPE svg PUBLIC "-//W3C//DTD SVG 20010904//EN"
 "http://www.w3.org/TR/2001/REC-SVG-20010904/DTD/svg10.dtd">
<svg version="1.0" xmlns="http://www.w3.org/2000/svg"
 width="512.000000pt" height="512.000000pt" viewBox="0 0 512.000000 512.000000"
 preserveAspectRatio="xMidYMid meet">

<g transform="translate(0.000000,512.000000) scale(0.100000,-0.100000)"
fill="#000000" stroke="none">
<path d="M1708 4586 c-39 -29 -42 -94 -7 -123 8 -6 45 -23 82 -39 300 -119
498 -410 524 -765 5 -81 4 -90 -23 -145 l-29 -59 -3 -272 -3 -271 33 -26 c19
-14 61 -38 93 -53 55 -25 70 -28 170 -28 120 1 180 18 278 78 l48 29 -3 277
c-3 264 -4 278 -25 318 -29 54 -31 160 -4 288 62 300 233 517 494 627 40 16
79 37 89 45 25 22 30 60 14 92 -27 51 -65 54 -165 11 -243 -104 -414 -276
-516 -518 -35 -85 -77 -238 -90 -335 -5 -39 -10 -47 -23 -43 -47 14 -91 16
-130 8 -50 -12 -45 -19 -62 93 -55 362 -276 658 -591 791 -86 36 -124 41 -151
20z"/>
<path d="M527 4425 c-183 -50 -318 -196 -376 -403 -49 -179 -65 -315 -65 -552
0 -190 4 -245 23 -355 29 -163 81 -345 122 -427 72 -144 184 -266 322 -352 76
-48 228 -115 259 -116 33 0 28 -20 -22 -82 -158 -196 -229 -418 -200 -627 45
-328 234 -630 506 -810 187 -123 320 -166 519 -164 157 1 246 21 382 88 l93
46 2 1402 c3 1361 4 1404 22 1456 l20 54 -160 156 c-87 86 -202 190 -254 233
-274 221 -618 398 -880 454 -81 17 -249 17 -313 -1z"/>
<path d="M4292 4425 c-258 -47 -574 -208 -872 -446 -58 -46 -178 -156 -268
-244 l-163 -160 18 -45 c17 -42 18 -123 21 -1447 l2 -1402 58 -34 c186 -111
434 -145 641 -87 227 64 459 230 600 430 61 86 98 157 146 276 121 300 69 622
-142 880 -24 31 -43 57 -41 59 2 2 46 19 99 38 254 90 436 267 538 523 124
310 146 831 50 1234 -79 335 -329 490 -687 425z"/>
<path d="M2805 2694 c-83 -39 -184 -57 -294 -51 -89 4 -138 17 -244 62 -17 7
-17 -39 -15 -976 l3 -984 27 -51 c122 -232 445 -229 560 4 l23 47 3 988 c1
543 -1 987 -5 986 -5 0 -30 -11 -58 -25z"/>
</g>
</svg>
